<?xml version="1.0" encoding="utf-8"?>
<!-- Generator: Adobe Illustrator 27.1.1, SVG Export Plug-In . SVG Version: 6.00 Build 0)  -->
<svg version="1.1" id="Layer_1" xmlns="http://www.w3.org/2000/svg" xmlns:xlink="http://www.w3.org/1999/xlink" x="0px" y="0px"
	 viewBox="0 0 101.5 93.5" style="enable-background:new 0 0 101.5 93.5;" xml:space="preserve">
<style type="text/css">
	.st0{fill:#E2E2E2;}
	.st1{fill:#345D9E;}
	.st2{fill:#FEF3F7;}
	.st3{fill:#FFFFFF;}
</style>
<g>
	<circle class="st1" cx="49.81" cy="37.44" r="23.82"/>
</g>
<g>
	<path class="st2" d="M54.08,21.81l-2.7,9.24l-6.88,1.92l3.48-11.46c0.07-0.22,0.27-0.37,0.51-0.37h5.08
		C53.92,21.14,54.17,21.48,54.08,21.81z"/>
</g>
<g>
	<path class="st2" d="M60.41,46.6l-1.12,4.07c-0.06,0.22-0.26,0.38-0.51,0.38H39.71c-0.36,0-0.61-0.34-0.51-0.67l1.84-6.04
		l7.04-1.96l-0.81,2.79c-0.1,0.33,0.15,0.66,0.5,0.66l12.14,0.09C60.25,45.93,60.5,46.26,60.41,46.6z"/>
</g>
<g>
	<path class="st1" d="M30.18,75.35v2.02h-5.92v-8.64h2.54v6.62H30.18z"/>
	<path class="st1" d="M31,77.37v-6.61h2.45v6.61H31z M33.1,70.07c-0.23,0.22-0.52,0.33-0.87,0.33c-0.35,0-0.64-0.11-0.87-0.33
		c-0.23-0.22-0.35-0.5-0.35-0.83s0.12-0.61,0.35-0.83s0.52-0.33,0.87-0.33c0.35,0,0.64,0.11,0.87,0.33s0.35,0.5,0.35,0.83
		S33.33,69.85,33.1,70.07z"/>
	<path class="st1" d="M34.97,69.32h2.45v1.45h1.16v1.78h-1.16v2.44c0,0.42,0.25,0.63,0.74,0.63c0.16,0,0.3-0.01,0.42-0.03v1.7
		c-0.29,0.06-0.63,0.09-1.01,0.09c-0.93,0-1.6-0.14-2-0.43c-0.4-0.29-0.6-0.76-0.6-1.41v-2.99H34.1v-1.78h0.87V69.32z"/>
	<path class="st1" d="M43.76,75.23h2.18c-0.1,0.71-0.45,1.28-1.03,1.69c-0.58,0.41-1.33,0.62-2.23,0.62c-1.08,0-1.93-0.3-2.54-0.91
		s-0.92-1.45-0.92-2.52c0-1.08,0.3-1.94,0.91-2.56s1.43-0.94,2.47-0.94c1.03,0,1.84,0.3,2.45,0.91s0.92,1.41,0.92,2.42v0.66h-4.38
		v0.16c0,0.32,0.11,0.59,0.32,0.8c0.21,0.21,0.48,0.31,0.81,0.31c0.25,0,0.47-0.06,0.66-0.17S43.68,75.42,43.76,75.23z M42.66,72.28
		c-0.28,0-0.51,0.09-0.71,0.28s-0.3,0.42-0.32,0.7h2.06c-0.02-0.29-0.12-0.53-0.31-0.71C43.18,72.37,42.94,72.28,42.66,72.28z"/>
	<path class="st1" d="M50.57,77.51c-1.18,0-2.11-0.4-2.81-1.21s-1.04-1.9-1.04-3.26c0-1.35,0.35-2.43,1.04-3.23s1.63-1.2,2.8-1.2
		c0.6,0,1.16,0.12,1.66,0.37s0.92,0.58,1.24,1.02c0.32,0.44,0.52,0.94,0.6,1.49h-0.82c-0.12-0.62-0.43-1.13-0.93-1.53
		c-0.5-0.4-1.08-0.59-1.75-0.59c-0.92,0-1.65,0.33-2.19,1c-0.54,0.66-0.82,1.56-0.82,2.68c0,1.14,0.27,2.04,0.82,2.71
		c0.54,0.67,1.28,1.01,2.2,1.01c0.69,0,1.28-0.17,1.76-0.52c0.48-0.35,0.79-0.82,0.92-1.41h0.82c-0.15,0.84-0.54,1.5-1.16,1.98
		C52.28,77.27,51.5,77.51,50.57,77.51z"/>
	<path class="st1" d="M55.2,77.37v-8.64H56v3.56h0.02c0.16-0.39,0.42-0.69,0.78-0.92c0.36-0.22,0.78-0.34,1.27-0.34
		c0.68,0,1.22,0.21,1.62,0.63s0.6,0.98,0.6,1.68v4.02h-0.8v-3.89c0-0.54-0.15-0.97-0.44-1.27c-0.29-0.3-0.7-0.46-1.22-0.46
		c-0.56,0-1,0.18-1.34,0.54c-0.34,0.36-0.5,0.83-0.5,1.42v3.66H55.2z"/>
	<path class="st1" d="M63.46,77.47c-0.61,0-1.11-0.17-1.49-0.51c-0.38-0.34-0.57-0.78-0.57-1.32c0-0.53,0.19-0.96,0.58-1.27
		s0.94-0.49,1.66-0.54l1.94-0.12v-0.54c0-0.45-0.14-0.8-0.41-1.06c-0.27-0.25-0.65-0.38-1.13-0.38c-0.45,0-0.82,0.11-1.11,0.32
		c-0.29,0.21-0.46,0.51-0.53,0.89h-0.77c0.04-0.57,0.28-1.03,0.72-1.38c0.44-0.35,1-0.53,1.7-0.53c0.71,0,1.27,0.19,1.69,0.56
		s0.62,0.87,0.62,1.51v4.26h-0.75v-1.18h-0.02c-0.17,0.39-0.45,0.7-0.84,0.93C64.35,77.36,63.93,77.47,63.46,77.47z M63.63,76.79
		c0.55,0,1.01-0.17,1.38-0.51c0.38-0.34,0.56-0.76,0.56-1.25v-0.69l-1.84,0.13c-0.49,0.03-0.87,0.15-1.13,0.36
		c-0.26,0.21-0.4,0.48-0.4,0.82c0,0.34,0.13,0.61,0.4,0.83C62.86,76.68,63.2,76.79,63.63,76.79z"/>
	<path class="st1" d="M68.14,69.89c-0.14,0-0.27-0.05-0.37-0.15c-0.1-0.1-0.16-0.23-0.16-0.37c0-0.14,0.05-0.27,0.16-0.37
		c0.1-0.1,0.23-0.15,0.37-0.15c0.15,0,0.27,0.05,0.38,0.15c0.1,0.1,0.16,0.22,0.16,0.37c0,0.15-0.05,0.27-0.16,0.37
		C68.41,69.84,68.29,69.89,68.14,69.89z M67.74,77.37v-6.22h0.79v6.22H67.74z"/>
	<path class="st1" d="M69.95,77.37v-6.22h0.75v1.15h0.02c0.16-0.39,0.42-0.69,0.78-0.92c0.36-0.22,0.78-0.34,1.27-0.34
		c0.68,0,1.22,0.21,1.61,0.62c0.39,0.41,0.59,0.97,0.59,1.68v4.03h-0.79v-3.91c0-0.54-0.14-0.96-0.43-1.26
		c-0.29-0.3-0.69-0.45-1.21-0.45c-0.54,0-0.97,0.18-1.3,0.53s-0.5,0.82-0.5,1.4v3.69H69.95z"/>
</g>
<g>
	<path class="st2" d="M43.8,37.52c-0.59-0.59-1.17-1.16-1.78-1.78c3.98-0.62,7.92-1.24,11.85-1.85c0.01,0.01,0.01,0.02,0.02,0.03
		c-1.75,1.29-3.5,2.57-5.24,3.85c0.54,0.54,1.08,1.07,1.61,1.61c-0.01,0.02-0.02,0.05-0.03,0.07c-3.97,0.77-7.93,1.55-11.9,2.32
		c-0.01-0.01-0.01-0.02-0.02-0.04C40.14,40.33,41.97,38.93,43.8,37.52z"/>
</g>
</svg>
