<?xml version="1.0" encoding="utf-8"?>
<!-- Generator: Adobe Illustrator 27.1.1, SVG Export Plug-In . SVG Version: 6.00 Build 0)  -->
<svg version="1.1" id="Layer_1" xmlns="http://www.w3.org/2000/svg" xmlns:xlink="http://www.w3.org/1999/xlink" x="0px" y="0px"
	 viewBox="0 0 283.46 93.5" style="enable-background:new 0 0 283.46 93.5;" xml:space="preserve">
<style type="text/css">
	.st0{fill:#E2E2E2;}
	.st1{fill:#345D9E;}
	.st2{fill:#FEF3F7;}
	.st3{fill:#FFFFFF;}
</style>
<g>
	<circle class="st1" cx="61.29" cy="46.68" r="25.44"/>
</g>
<g>
	<path class="st2" d="M65.85,29.99l-2.88,9.87l-7.35,2.05l3.72-12.24c0.07-0.24,0.29-0.4,0.54-0.4h5.43
		C65.68,29.27,65.95,29.63,65.85,29.99z"/>
</g>
<g>
	<path class="st2" d="M72.61,56.46l-1.2,4.35c-0.06,0.24-0.28,0.41-0.54,0.41H50.51c-0.38,0-0.65-0.36-0.54-0.72l1.96-6.45
		l7.52-2.09l-0.87,2.98c-0.11,0.35,0.16,0.71,0.53,0.71l12.97,0.1C72.44,55.75,72.71,56.1,72.61,56.46z"/>
</g>
<g>
	<path class="st1" d="M112.77,53.32v6.03H95.05V33.52h7.59v19.79H112.77z"/>
	<path class="st1" d="M115.22,59.35V39.59h7.34v19.76H115.22z M121.49,37.5c-0.7,0.66-1.57,0.99-2.6,0.99s-1.91-0.33-2.6-0.99
		c-0.7-0.66-1.05-1.49-1.05-2.48c0-0.99,0.35-1.82,1.05-2.48c0.7-0.66,1.57-0.99,2.6-0.99s1.91,0.33,2.6,0.99
		c0.7,0.66,1.05,1.49,1.05,2.48C122.54,36.02,122.19,36.84,121.49,37.5z"/>
	<path class="st1" d="M127.08,35.26h7.34v4.33h3.47v5.32h-3.47v7.3c0,1.25,0.74,1.88,2.22,1.88c0.48,0,0.9-0.03,1.25-0.09v5.08
		c-0.87,0.18-1.88,0.27-3.02,0.27c-2.78,0-4.77-0.43-5.98-1.29s-1.81-2.27-1.81-4.22v-8.93h-2.61v-5.32h2.61V35.26z"/>
	<path class="st1" d="M153.36,52.94h6.53c-0.31,2.13-1.34,3.82-3.08,5.06c-1.74,1.24-3.97,1.85-6.68,1.85
		c-3.23,0-5.76-0.91-7.59-2.73s-2.74-4.33-2.74-7.54c0-3.23,0.91-5.79,2.72-7.67c1.81-1.88,4.27-2.82,7.37-2.82
		c3.07,0,5.51,0.9,7.34,2.71c1.83,1.81,2.74,4.22,2.74,7.24v1.99h-13.1v0.47c0,0.97,0.32,1.76,0.95,2.39
		c0.63,0.63,1.44,0.94,2.42,0.94c0.75,0,1.41-0.17,1.96-0.5C152.76,53.99,153.14,53.53,153.36,52.94z M150.06,44.14
		c-0.83,0-1.54,0.27-2.11,0.82c-0.57,0.55-0.89,1.25-0.97,2.09h6.16c-0.06-0.88-0.37-1.59-0.94-2.12
		C151.64,44.4,150.92,44.14,150.06,44.14z"/>
	<path class="st1" d="M173.72,59.76c-3.52,0-6.32-1.21-8.39-3.62s-3.11-5.67-3.11-9.76c0-4.04,1.04-7.27,3.12-9.67
		c2.08-2.4,4.88-3.6,8.38-3.6c1.8,0,3.46,0.36,4.97,1.09c1.51,0.73,2.75,1.75,3.71,3.06c0.97,1.31,1.56,2.8,1.79,4.46h-2.45
		c-0.36-1.86-1.28-3.38-2.77-4.56c-1.49-1.18-3.24-1.77-5.24-1.77c-2.74,0-4.93,0.99-6.56,2.98c-1.63,1.99-2.44,4.66-2.44,8.01
		c0,3.4,0.81,6.1,2.44,8.11c1.63,2,3.82,3.01,6.58,3.01c2.06,0,3.82-0.52,5.26-1.56c1.44-1.04,2.36-2.45,2.74-4.22h2.45
		c-0.45,2.52-1.61,4.49-3.47,5.92S176.53,59.76,173.72,59.76z"/>
	<path class="st1" d="M187.58,59.35V33.52h2.38v10.65h0.05c0.48-1.16,1.25-2.07,2.33-2.74s2.34-1,3.81-1c2.03,0,3.64,0.63,4.85,1.88
		c1.21,1.25,1.81,2.92,1.81,5.01v12.03h-2.38V47.71c0-1.62-0.44-2.89-1.31-3.8c-0.87-0.91-2.09-1.37-3.65-1.37
		c-1.67,0-3.01,0.54-4.01,1.61s-1.5,2.49-1.5,4.24v10.95H187.58z"/>
	<path class="st1" d="M212.29,59.65c-1.84,0-3.33-0.5-4.47-1.51c-1.14-1.01-1.71-2.32-1.71-3.95c0-1.6,0.58-2.86,1.73-3.79
		c1.15-0.93,2.8-1.47,4.95-1.61l5.8-0.36v-1.61c0-1.35-0.41-2.4-1.22-3.16c-0.81-0.76-1.94-1.14-3.38-1.14
		c-1.36,0-2.47,0.32-3.32,0.95c-0.85,0.63-1.38,1.52-1.58,2.65h-2.29c0.13-1.69,0.85-3.07,2.16-4.12s3-1.58,5.09-1.58
		c2.12,0,3.81,0.56,5.05,1.67s1.86,2.61,1.86,4.51v12.74h-2.25V55.8h-0.05c-0.51,1.16-1.35,2.09-2.52,2.79
		C214.95,59.3,213.68,59.65,212.29,59.65z M212.78,57.61c1.63,0,3.01-0.51,4.13-1.52s1.68-2.26,1.68-3.74v-2.06l-5.51,0.38
		c-1.47,0.1-2.59,0.45-3.38,1.06c-0.79,0.62-1.18,1.44-1.18,2.46c0,1.01,0.39,1.84,1.18,2.47C210.48,57.3,211.51,57.61,212.78,57.61
		z"/>
	<path class="st1" d="M226.27,36.98c-0.43,0-0.8-0.15-1.11-0.46c-0.31-0.3-0.46-0.68-0.46-1.12c0-0.43,0.16-0.8,0.46-1.1
		c0.31-0.3,0.68-0.46,1.11-0.46c0.44,0,0.82,0.15,1.13,0.46s0.47,0.67,0.47,1.1c0,0.44-0.16,0.81-0.47,1.12
		C227.09,36.82,226.71,36.98,226.27,36.98z M225.09,59.35V40.73h2.36v18.61H225.09z"/>
	<path class="st1" d="M231.69,59.35V40.73h2.24v3.44h0.05c0.49-1.16,1.27-2.07,2.34-2.74c1.07-0.67,2.33-1,3.8-1
		c2.04,0,3.65,0.61,4.82,1.84s1.76,2.9,1.76,5.01v12.06h-2.36V47.66c0-1.62-0.43-2.88-1.28-3.78c-0.85-0.89-2.06-1.34-3.62-1.34
		c-1.61,0-2.91,0.53-3.9,1.59s-1.49,2.46-1.49,4.19v11.02H231.69z"/>
</g>
<g>
	<path class="st2" d="M54.88,46.77c-0.63-0.63-1.25-1.24-1.9-1.9c4.25-0.67,8.45-1.32,12.66-1.98c0.01,0.01,0.01,0.02,0.02,0.04
		c-1.87,1.37-3.74,2.75-5.6,4.12c0.58,0.57,1.15,1.14,1.72,1.71c-0.01,0.02-0.02,0.05-0.03,0.07c-4.24,0.83-8.47,1.65-12.71,2.48
		c-0.01-0.01-0.01-0.03-0.02-0.04C50.96,49.77,52.92,48.27,54.88,46.77z"/>
</g>
</svg>
